<?xml version="1.0" encoding="utf-8"?>
<!-- Generator: Adobe Illustrator 25.2.1, SVG Export Plug-In . SVG Version: 6.00 Build 0)  -->
<svg version="1.1" id="Layer_1" xmlns="http://www.w3.org/2000/svg" xmlns:xlink="http://www.w3.org/1999/xlink" x="0px" y="0px"
	 viewBox="0 0 176.3 176.3" style="enable-background:new 0 0 176.3 176.3;" xml:space="preserve">
<style type="text/css">
	.st0{fill:#00B4CA;}
	.st1{fill:none;stroke:#00B4CA;stroke-width:3;stroke-miterlimit:10;}
	.st2{fill:#FFFFFF;}
	.st3{fill:none;stroke:#FFFFFF;stroke-miterlimit:10;}
	.st4{fill-rule:evenodd;clip-rule:evenodd;fill:#FFFFFF;}
</style>
<circle class="st0" cx="88.1" cy="88.1" r="68.1"/>
<circle class="st1" cx="88.1" cy="88.1" r="75"/>
<g>
	<path class="st2" d="M48,59.7l-1.3,2l-3.8-2.5c-0.5-0.3-0.9-0.6-1.2-0.9c0.1,0.2,0.1,0.5,0.2,0.8l0.1,1.3l-1.9,0.2l-0.4-3.8
		l1.1-1.7L48,59.7z"/>
	<path class="st2" d="M50.1,50.5c1.1,1,1.8,1.9,2,2.8c0.2,0.8-0.1,1.7-0.8,2.4c-0.7,0.8-1.5,1.1-2.4,1s-1.9-0.6-3-1.6
		c-1.1-1-1.8-1.9-2-2.8c-0.2-0.8,0.1-1.7,0.7-2.5c0.7-0.8,1.5-1.1,2.4-1C48,49,49,49.5,50.1,50.5z M47.6,53.4c0.7,0.6,1.3,1,1.6,1.2
		c0.4,0.1,0.6,0.1,0.8-0.1c0.2-0.2,0.2-0.5,0-0.8s-0.7-0.8-1.4-1.4c-0.7-0.6-1.2-1-1.6-1.2s-0.6-0.1-0.8,0.1c-0.2,0.2-0.2,0.5,0,0.8
		C46.4,52.2,46.8,52.7,47.6,53.4z"/>
	<path class="st2" d="M54.1,38.1c0.4,0.1,0.7,0.3,0.9,0.6c0.2,0.3,0.3,0.7,0.2,1.1s-0.3,0.7-0.6,0.9c-0.3,0.2-0.7,0.3-1.1,0.2
		s-0.7-0.3-0.9-0.6c-0.2-0.3-0.3-0.7-0.2-1.1s0.3-0.7,0.6-0.9C53.4,38.1,53.7,38,54.1,38.1z M53.3,39.4c0,0.1,0,0.3,0.1,0.4
		c0.1,0.1,0.2,0.2,0.3,0.2c0.1,0,0.3,0,0.4-0.1c0.1-0.1,0.2-0.2,0.2-0.3c0-0.1,0-0.3-0.1-0.4c-0.1-0.1-0.2-0.2-0.3-0.2
		c-0.1,0-0.3,0-0.4,0.1C53.4,39.1,53.3,39.3,53.3,39.4z M61.7,46.5l-1.3-0.9l-3,2.1l0.4,1.6l-1.8,1.3L54,41.6l1.8-1.3l7.7,4.8
		L61.7,46.5z M57,46l1.9-1.3l-2.7-1.8L57,46z"/>
	<path class="st2" d="M69,42.7l-2.1-1.6l0,0l-1.4,0.7l1,2.1l-2,0.9l-3.5-7.6l3.4-1.6c1-0.5,1.9-0.6,2.7-0.4c0.8,0.2,1.4,0.7,1.7,1.6
		c0.3,0.6,0.4,1.1,0.3,1.6c0,0.5-0.2,1-0.6,1.4l2.7,1.8L69,42.7z M64.7,40.2l1.4-0.7c0.4-0.2,0.7-0.4,0.8-0.7c0.1-0.3,0.1-0.6-0.1-1
		c-0.2-0.4-0.4-0.6-0.7-0.7s-0.7-0.1-1.1,0.1l-1.4,0.7L64.7,40.2z"/>
	<path class="st2" d="M75,33.9c-0.5,0-1,0-1.3,0.1c-0.3,0.1-0.5,0.2-0.6,0.3C73,34.5,73,34.6,73,34.8c0,0.2,0.2,0.3,0.3,0.4
		c0.2,0.1,0.4,0.1,0.6,0.2c0.2,0,0.5,0,0.9,0.1c0.6,0,1.1,0,1.5,0.1c0.4,0.1,0.8,0.2,1.1,0.5c0.4,0.3,0.6,0.7,0.7,1.2
		c0.1,0.5,0.1,1-0.1,1.5c-0.2,0.5-0.5,0.9-0.9,1.2c-0.4,0.3-1,0.6-1.6,0.7c-0.7,0.2-1.4,0.2-2.1,0.2s-1.4-0.2-2-0.5l0.4-1.9
		c0.5,0.3,1.1,0.4,1.7,0.5c0.6,0.1,1.1,0.1,1.6,0c0.3-0.1,0.6-0.2,0.7-0.4c0.2-0.2,0.2-0.4,0.1-0.6c0-0.2-0.2-0.3-0.3-0.4
		c-0.2-0.1-0.4-0.1-0.6-0.2c-0.2,0-0.5,0-0.9,0c-0.6,0-1.1,0-1.5-0.1c-0.4-0.1-0.8-0.2-1.1-0.5c-0.3-0.3-0.6-0.6-0.7-1.2
		c-0.1-0.5-0.1-1,0-1.4c0.2-0.4,0.5-0.8,0.9-1.2s1-0.6,1.6-0.8c0.6-0.2,1.2-0.2,1.8-0.2c0.6,0,1.2,0.1,1.7,0.3l-0.3,1.9
		C76.1,34,75.5,34,75,33.9z"/>
	<path class="st2" d="M88.8,34.6l1.9,0l0.1,3.3c-0.4,0.3-1,0.6-1.6,0.8c-0.6,0.2-1.3,0.3-1.8,0.3c-0.8,0-1.6-0.2-2.3-0.5
		c-0.7-0.4-1.2-0.9-1.6-1.5c-0.4-0.7-0.6-1.4-0.6-2.2c0-0.8,0.2-1.6,0.6-2.2c0.4-0.7,0.9-1.2,1.6-1.6c0.7-0.4,1.5-0.6,2.4-0.6
		c0.6,0,1.2,0.1,1.9,0.3s1.2,0.5,1.6,0.9l-1.2,1.6c-0.3-0.3-0.7-0.5-1.1-0.7s-0.8-0.2-1.2-0.2c-0.4,0-0.8,0.1-1.2,0.4
		c-0.4,0.2-0.6,0.5-0.8,0.9c-0.2,0.4-0.3,0.8-0.3,1.3c0,0.5,0.1,0.9,0.3,1.3c0.2,0.4,0.5,0.7,0.9,0.9c0.4,0.2,0.8,0.3,1.2,0.3
		c0.4,0,0.9-0.2,1.4-0.4L88.8,34.6z"/>
	<path class="st2" d="M98.4,39.9l-0.3-1.6l-3.6-0.6l-0.8,1.4l-2.2-0.4l4.9-7.7l2.2,0.4l2.1,8.9L98.4,39.9z M95.4,36.2l2.3,0.4
		L97,33.4L95.4,36.2z"/>
	<path class="st2" d="M106.2,42.3l-0.4-2.6l0,0l-1.5-0.5l-0.8,2.2l-2.1-0.7l2.8-7.9l3.6,1.3c1,0.4,1.8,0.9,2.2,1.6
		c0.4,0.7,0.4,1.5,0.1,2.4c-0.2,0.6-0.5,1.1-0.9,1.4c-0.4,0.3-0.9,0.6-1.4,0.6l0.7,3.2L106.2,42.3z M104.9,37.5l1.5,0.5
		c0.4,0.2,0.8,0.2,1.1,0c0.3-0.1,0.5-0.4,0.7-0.8c0.1-0.4,0.1-0.7,0-1c-0.2-0.3-0.4-0.5-0.9-0.7l-1.5-0.5L104.9,37.5z"/>
	<path class="st2" d="M115,46.8l0.3-1.6l-3.1-1.8l-1.3,1l-1.9-1.1l7.4-5.4l1.9,1.1l-1.2,9L115,46.8z M113.5,42.3l2,1.2l0.5-3.2
		L113.5,42.3z"/>
	<path class="st2" d="M127.5,46l1.5,1.3l-5.5,6.3l-1.4-1.3l0.4-6.3l-3.3,3.8l-1.5-1.3l5.5-6.3l1.5,1.3l-0.5,6.3L127.5,46z"/>
	<path class="st2" d="M130.7,49.1l4.5,5.6l-1.4,1.1l-1.6-2l-5.1,4.1l-1.4-1.7l5.1-4.1l-1.6-1.9L130.7,49.1z"/>
	<path class="st2" d="M136.4,56.6l1.2,1.9l-7.1,4.5l-1.2-1.9L136.4,56.6z"/>
</g>
<g>
	<path class="st2" d="M81.1,107.7H70.4V87c0-2.5,0.1-4.8,0.2-6.9c-0.7,0.8-1.5,1.6-2.5,2.5l-4.4,3.7l-5.5-6.7l13.4-10.9h9.5V107.7z"
		/>
	<path class="st2" d="M118.1,88.2c0,6.9-1.2,11.9-3.5,15.2c-2.3,3.2-5.8,4.8-10.6,4.8c-4.7,0-8.2-1.7-10.5-5
		c-2.4-3.4-3.5-8.3-3.5-14.9c0-6.9,1.2-12,3.5-15.3c2.3-3.2,5.8-4.9,10.6-4.9c4.6,0,8.1,1.7,10.5,5.1
		C116.9,76.5,118.1,81.5,118.1,88.2z M100.4,88.2c0,4.4,0.3,7.4,0.8,9.1c0.6,1.7,1.5,2.5,2.8,2.5c1.3,0,2.2-0.9,2.8-2.6
		c0.5-1.7,0.8-4.7,0.8-9c0-4.3-0.3-7.3-0.8-9.1c-0.6-1.7-1.5-2.6-2.8-2.6c-1.3,0-2.2,0.8-2.8,2.5C100.7,80.7,100.4,83.8,100.4,88.2z
		"/>
</g>
<path class="st3" d="M74.1,139.7c-22.7-6.2-39.5-26.9-39.5-51.6c0-7.1,1.4-13.9,3.9-20"/>
<path class="st3" d="M137.7,68.1c2.5,6.2,3.9,13,3.9,20c0,24.7-16.7,45.4-39.4,51.6"/>
<polygon class="st4" points="95.8,145 95.4,145 93.7,145 93.7,137.8 93.7,137.8 93.7,137.6 93.7,137.6 93.7,137.5 93.6,137.4 
	93.6,137.3 93.6,137.2 93.6,137.1 93.5,137 93.5,136.9 93.5,136.9 93.5,136.8 93.4,136.7 93.3,136.6 93.3,136.5 93.3,136.5 
	93.2,136.4 93.1,136.3 93.1,136.2 93,136.2 92.9,136.1 92.8,136.1 92.7,136 92.7,135.9 92.6,135.9 92.5,135.9 92.4,135.8 
	92.3,135.8 92.2,135.8 92.1,135.7 92,135.7 91.9,135.7 88.7,135.7 88.6,135.7 88.5,135.7 88.4,135.8 88.2,135.8 88.1,135.8 
	88,135.9 87.9,135.9 87.8,135.9 87.7,136 87.6,136.1 87.5,136.1 87.4,136.2 87.3,136.3 87.3,136.4 87.2,136.5 87.1,136.5 
	87.1,136.6 87,136.7 87,136.8 86.9,136.9 86.9,137 86.9,137.1 86.9,137.1 86.9,137.2 86.8,137.3 86.8,137.4 86.8,137.5 86.8,137.5 
	86.8,137.6 86.8,137.7 86.8,137.8 86.8,137.8 86.8,145 84.9,145 84.9,137.8 84.9,137.8 84.9,137.7 84.9,137.6 84.9,137.5 
	84.9,137.4 84.9,137.3 84.8,137.2 84.8,137.1 84.8,137 84.7,136.9 84.7,136.9 84.7,136.8 84.6,136.7 84.6,136.6 84.5,136.5 
	84.5,136.4 84.4,136.3 84.3,136.3 84.2,136.2 84.1,136.1 84.1,136.1 84,136 83.9,135.9 83.8,135.9 83.7,135.9 83.6,135.8 
	83.5,135.8 83.4,135.8 83.3,135.7 83.2,135.7 83.1,135.7 83,135.7 80.3,135.7 80.3,138.2 82.4,138.2 82.4,145.3 82.4,145.4 
	82.4,145.5 82.5,145.6 82.5,145.8 82.5,145.9 82.5,146 82.6,146.1 82.6,146.2 82.6,146.3 82.7,146.4 82.8,146.5 82.8,146.6 
	82.9,146.7 83,146.8 83,146.8 83.1,146.9 83.2,147 83.3,147.1 83.4,147.1 83.5,147.2 83.6,147.2 83.7,147.3 83.8,147.3 83.9,147.3 
	84,147.4 84.1,147.4 84.2,147.4 84.3,147.4 84.3,147.4 84.4,147.4 84.5,147.4 84.6,147.4 87.2,147.4 87.2,147.4 87.2,147.4 
	87.3,147.4 87.4,147.4 87.5,147.4 87.6,147.4 87.7,147.4 87.8,147.4 87.9,147.3 88,147.3 88,147.3 88.1,147.2 88.2,147.2 
	88.3,147.1 88.4,147.1 88.5,147 88.6,146.9 88.7,146.8 88.8,146.8 88.8,146.7 88.9,146.6 89,146.5 89,146.4 89.1,146.3 89.1,146.2 
	89.1,146.1 89.2,146 89.2,145.8 89.2,145.8 89.2,145.6 89.2,145.5 89.2,145.4 89.2,145.3 89.2,138.2 91.2,138.2 91.2,145.3 
	91.2,145.4 91.2,145.5 91.3,145.6 91.3,145.7 91.3,145.8 91.3,145.8 91.3,146 91.3,146 91.4,146.1 91.4,146.2 91.4,146.3 
	91.5,146.4 91.5,146.4 91.6,146.5 91.6,146.6 91.7,146.7 91.7,146.8 91.8,146.8 91.9,146.9 91.9,147 92,147 92.1,147.1 92.2,147.2 
	92.3,147.2 92.4,147.3 92.5,147.3 92.6,147.4 92.7,147.4 92.8,147.4 92.9,147.4 93.1,147.4 93.1,147.4 95.4,147.4 95.8,147.4 
	95.9,147.4 "/>
</svg>
