<svg  class="w-full" viewBox="0 0 143 29" fill="none" xmlns="http://www.w3.org/2000/svg">
    <path
        d="M64.3247 1.98419L54.8251 27.2193H45.0223L43.3548 18.0614L39.565 27.2193H29.0042L27.3873 1.98419H34.8657L35.5226 19.5877L42.3947 1.98419H50.6816L47.5993 9.71753L50.1258 19.6386L56.4926 1.98419H64.3247Z"
        fill="#00B5CB" />
    <path
        d="M90.4487 1.98419H76.5024H69.2261L67.1544 7.93682H76.5024H84.3851C85.3452 7.93682 85.8 8.29296 85.8 9.05612C85.8 9.20875 85.7494 9.36138 85.7494 9.56489L85.2947 11.0403H76.5024H69.0745C67.0533 11.0403 65.7395 12.007 65.0827 13.9403L62.4046 21.7245C62.2024 22.3351 62.1014 22.9456 62.1014 23.607C62.1014 24.5737 62.3035 25.4386 62.8088 26.1C63.4152 26.8631 64.2236 27.2193 65.3858 27.2193H76.553H86.5074L93.5816 7.02103C93.7837 6.51226 93.8848 5.95261 93.8848 5.34209C93.7837 3.10349 92.6721 1.98419 90.4487 1.98419ZM81.6565 21.2666H76.4519H70.8936C70.1862 21.2666 69.8325 20.9614 69.8325 20.1982C69.8325 19.9947 69.883 19.7403 69.9335 19.4351L70.3883 18.3158C70.6915 17.4509 71.3484 16.9421 72.2579 16.9421H76.4519H83.1219L81.6565 21.2666Z"
        fill="#00B5CB" />
    <path
        d="M123.9 1.93335H115.815H97.2198L95.047 7.98773H105.153L98.382 27.2193H105.254L112.025 7.98773H113.693H121.777H123.748L116.977 27.2193H123.849L130.62 7.98773H140.372L142.495 1.93335H123.9Z"
        fill="#00B5CB" />
    <path fill-rule="evenodd" clip-rule="evenodd"
        d="M22.3848 1.98423L3.84027 1.93335V5.08773H22.5869L22.3848 1.98423Z" fill="#00B5CB" />
    <path fill-rule="evenodd" clip-rule="evenodd" d="M23.6986 24.1158H3.84027V27.2193H23.8502L23.6986 24.1158Z"
        fill="#00B5CB" />
    <path fill-rule="evenodd" clip-rule="evenodd"
        d="M7.52896 7.1228C8.33744 7.1228 9.6007 7.37719 9.6007 9.81929C9.6007 12.2614 9.6007 18.9263 9.6007 18.9263H11.9756V9.81929C11.9756 9.81929 11.9251 7.1228 14.0979 7.1228C16.2707 7.1228 18.0897 7.1228 18.6456 7.1228C19.2014 7.1228 20.7173 7.37719 20.7173 9.66666C20.7173 11.9561 20.7173 18.8754 20.7173 18.8754H23.3954L23.5975 22.0298H20.1615C20.1615 22.0298 17.635 22.0298 17.635 19.5368C17.635 17.0439 17.635 10.1754 17.635 10.1754H15.1085V19.4351C15.1085 19.4351 15.3106 21.9789 12.582 21.9789C9.85335 21.9789 8.94381 21.9789 8.94381 21.9789C8.94381 21.9789 6.51836 21.8772 6.51836 19.5368C6.51836 17.1965 6.51836 10.2263 6.51836 10.2263H3.84027V7.1228C3.84027 7.1228 6.72048 7.1228 7.52896 7.1228Z"
        fill="#00B5CB" />
</svg>
